<?xml version="1.0" encoding="UTF-8"?>
<svg width="11px" height="11px" viewBox="0 0 11 11" version="1.1" xmlns="http://www.w3.org/2000/svg" xmlns:xlink="http://www.w3.org/1999/xlink">
    <!-- Generator: Sketch 49 (51002) - http://www.bohemiancoding.com/sketch -->
    <title>Combined Shape Copy 9</title>
    <desc>Created with Sketch.</desc>
    <defs></defs>
    <g id="Page-1" stroke="none" stroke-width="1" fill="none" fill-rule="evenodd">
        <path d="M4.58333333,4.58333333 L4.58333333,0.916666667 C4.58333333,0.410405646 4.99373898,0 5.5,0 C6.00626102,0 6.41666667,0.410405646 6.41666667,0.916666667 L6.41666667,4.58333333 L10.0833333,4.58333333 C10.5895944,4.58333333 11,4.99373898 11,5.5 C11,6.00626102 10.5895944,6.41666667 10.0833333,6.41666667 L6.41666667,6.41666667 L6.41666667,10.0833333 C6.41666667,10.5895944 6.00626102,11 5.5,11 C4.99373898,11 4.58333333,10.5895944 4.58333333,10.0833333 L4.58333333,6.41666667 L0.916666667,6.41666667 C0.410405646,6.41666667 0,6.00626102 0,5.5 C0,4.99373898 0.410405646,4.58333333 0.916666667,4.58333333 L4.58333333,4.58333333 Z" id="Combined-Shape-Copy-9" fill="#009EF9" fill-rule="nonzero"></path>
    </g>
</svg>