<?xml version="1.0" encoding="UTF-8"?>
<svg width="10px" height="10px" viewBox="0 0 10 10" version="1.1" xmlns="http://www.w3.org/2000/svg" xmlns:xlink="http://www.w3.org/1999/xlink">
    <!-- Generator: Sketch 49 (51002) - http://www.bohemiancoding.com/sketch -->
    <title>Combined Shape Copy 8</title>
    <desc>Created with Sketch.</desc>
    <defs></defs>
    <g id="Page-1" stroke="none" stroke-width="1" fill="none" fill-rule="evenodd">
        <path d="M4.53553391,3.12132034 L7.36396103,0.292893219 C7.75448532,-0.0976310729 8.3876503,-0.0976310729 8.77817459,0.292893219 C9.16869888,0.683417511 9.16869888,1.31658249 8.77817459,1.70710678 L5.94974747,4.53553391 L8.77817459,7.36396103 C9.16869888,7.75448532 9.16869888,8.3876503 8.77817459,8.77817459 C8.3876503,9.16869888 7.75448532,9.16869888 7.36396103,8.77817459 L4.53553391,5.94974747 L1.70710678,8.77817459 C1.31658249,9.16869888 0.683417511,9.16869888 0.292893219,8.77817459 C-0.0976310729,8.3876503 -0.0976310729,7.75448532 0.292893219,7.36396103 L3.12132034,4.53553391 L0.292893219,1.70710678 C-0.0976310729,1.31658249 -0.0976310729,0.683417511 0.292893219,0.292893219 C0.683417511,-0.0976310729 1.31658249,-0.0976310729 1.70710678,0.292893219 L4.53553391,3.12132034 Z" id="Combined-Shape-Copy-8" fill="#009EF9" fill-rule="nonzero"></path>
    </g>
</svg>