<?xml version="1.0" encoding="UTF-8"?>
<svg width="15px" height="15px" viewBox="0 0 15 15" version="1.1" xmlns="http://www.w3.org/2000/svg" xmlns:xlink="http://www.w3.org/1999/xlink">
    <!-- Generator: Sketch 44.1 (41455) - http://www.bohemiancoding.com/sketch -->
    <title>i-add</title>
    <desc>Created with Sketch.</desc>
    <defs></defs>
    <g id="Page-1" stroke="none" stroke-width="1" fill="none" fill-rule="evenodd">
        <g id="01-创建问题-1" transform="translate(-888.000000, -536.000000)" fill-rule="nonzero" fill="#3ED086">
            <g id="Group-2" transform="translate(510.000000, 0.000000)">
                <path d="M385,543 L385,541.5 C385,541.223858 385.223858,541 385.5,541 C385.776142,541 386,541.223858 386,541.5 L386,543 L387.623106,543 C387.899248,543 388.123106,543.223858 388.123106,543.5 C388.123106,543.776142 387.899248,544 387.623106,544 L386,544 L386,545.623106 C386,545.899248 385.776142,546.123106 385.5,546.123106 C385.223858,546.123106 385,545.899248 385,545.623106 L385,544 L383.5,544 C383.223858,544 383,543.776142 383,543.5 C383,543.223858 383.223858,543 383.5,543 L385,543 Z M385.5,551 C381.357864,551 378,547.642136 378,543.5 C378,539.357864 381.357864,536 385.5,536 C389.642136,536 393,539.357864 393,543.5 C393,547.642136 389.642136,551 385.5,551 Z M385.5,550 C389.089851,550 392,547.089851 392,543.5 C392,539.910149 389.089851,537 385.5,537 C381.910149,537 379,539.910149 379,543.5 C379,547.089851 381.910149,550 385.5,550 Z" id="i-add"></path>
            </g>
        </g>
    </g>
</svg>