<?xml version="1.0" encoding="UTF-8"?>
<svg width="15px" height="15px" viewBox="0 0 15 15" version="1.1" xmlns="http://www.w3.org/2000/svg" xmlns:xlink="http://www.w3.org/1999/xlink">
    <!-- Generator: Sketch 44.1 (41455) - http://www.bohemiancoding.com/sketch -->
    <title>i-problem copy</title>
    <desc>Created with Sketch.</desc>
    <defs></defs>
    <g id="Page-1" stroke="none" stroke-width="1" fill="none" fill-rule="evenodd">
        <g id="01-创建问题-1" transform="translate(-673.000000, -164.000000)" fill="#009EF9">
            <g id="Group-2" transform="translate(510.000000, 0.000000)">
                <path d="M163,171.5 C163,167.357864 166.366293,164 170.5,164 C174.642136,164 178,167.366293 178,171.5 C178,175.642136 174.633707,179 170.5,179 C166.357864,179 163,175.633707 163,171.5 Z M169.807543,174.509893 C169.601092,174.690539 169.510769,174.922797 169.510769,175.206668 C169.510769,175.490539 169.601092,175.722797 169.807543,175.903442 C169.988189,176.084087 170.220447,176.187313 170.504318,176.187313 C170.788189,176.187313 171.020447,176.09699 171.226898,175.916345 C171.407543,175.7357 171.510769,175.490539 171.510769,175.206668 C171.510769,174.922797 171.407543,174.690539 171.226898,174.509893 C171.03335,174.329248 170.788189,174.238926 170.504318,174.238926 C170.220447,174.238926 169.988189,174.329248 169.807543,174.509893 Z M170.738941,166 C169.703264,166 168.891517,166.278409 168.289705,166.835227 C167.673897,167.392045 167.379989,168.160985 167.379989,169.142045 L168.975491,169.142045 C168.975491,168.585227 169.087456,168.147727 169.325382,167.842803 C169.591299,167.471591 170.025163,167.299242 170.640971,167.299242 C171.116823,167.299242 171.494705,167.418561 171.760622,167.670455 C172.012543,167.922348 172.1525,168.267045 172.1525,168.704545 C172.1525,169.035985 172.026539,169.354167 171.774618,169.645833 L171.60667,169.831439 C170.696954,170.600379 170.151124,171.157197 169.969181,171.515152 C169.773242,171.873106 169.689268,172.310606 169.689268,172.814394 L169.689268,173 L171.298766,173 L171.298766,172.814394 C171.298766,172.496212 171.368744,172.217803 171.508701,171.952652 C171.634661,171.714015 171.816604,171.488636 172.068526,171.289773 C172.740316,170.732955 173.14619,170.375 173.27215,170.242424 C173.608045,169.818182 173.789989,169.274621 173.789989,168.611742 C173.789989,167.80303 173.510076,167.166667 172.950251,166.702652 C172.390425,166.225379 171.648657,166 170.738941,166 Z" id="i-problem-copy"></path>
            </g>
        </g>
    </g>
</svg>