<?xml version="1.0" encoding="UTF-8"?>
<svg width="13px" height="14px" viewBox="0 0 13 14" version="1.1" xmlns="http://www.w3.org/2000/svg" xmlns:xlink="http://www.w3.org/1999/xlink">
    <!-- Generator: Sketch 44.1 (41455) - http://www.bohemiancoding.com/sketch -->
    <title>i-up1</title>
    <desc>Created with Sketch.</desc>
    <defs></defs>
    <g id="Page-1" stroke="none" stroke-width="1" fill="none" fill-rule="evenodd">
        <g id="01-创建问题-3" transform="translate(-818.000000, -413.000000)" fill="#E5E5E5">
            <path d="M824.979888,414.328843 L824.979888,425.568632 L824.979888,425.568632 C824.979888,425.844775 824.75603,426.068632 824.479888,426.068632 C824.203745,426.068632 823.979888,425.844775 823.979888,425.568632 L823.979888,414.381688 L818.853553,419.508022 C818.658291,419.703284 818.341709,419.703284 818.146447,419.508022 C817.951184,419.31276 817.951184,418.996177 818.146447,418.800915 L823.552126,413.395236 C824.079107,412.868255 824.933513,412.868255 825.460495,413.395236 L830.866174,418.800915 C831.061436,418.996177 831.061436,419.31276 830.866174,419.508022 C830.670911,419.703284 830.354329,419.703284 830.159067,419.508022 L824.979888,414.328843 Z" id="i-up1"></path>
        </g>
    </g>
</svg>