<?xml version="1.0" encoding="UTF-8"?>
<svg width="15px" height="15px" viewBox="0 0 15 15" version="1.1" xmlns="http://www.w3.org/2000/svg" xmlns:xlink="http://www.w3.org/1999/xlink">
    <!-- Generator: Sketch 44.1 (41455) - http://www.bohemiancoding.com/sketch -->
    <title>Combined Shape Copy 31</title>
    <desc>Created with Sketch.</desc>
    <defs></defs>
    <g id="Page-1" stroke="none" stroke-width="1" fill="none" fill-rule="evenodd">
        <g id="01-创建问题-1" transform="translate(-1142.000000, -536.000000)" fill-rule="nonzero" fill="#3ED086">
            <g id="Group-2" transform="translate(510.000000, 0.000000)">
                <path d="M639,543 L637.5,543 C637.223858,543 637,543.223858 637,543.5 C637,543.776142 637.223858,544 637.5,544 L639,544 L639,545.623106 C639,545.899248 639.223858,546.123106 639.5,546.123106 C639.776142,546.123106 640,545.899248 640,545.623106 L640,544 L641.623106,544 C641.899248,544 642.123106,543.776142 642.123106,543.5 C642.123106,543.223858 641.899248,543 641.623106,543 L640,543 L640,541.5 C640,541.223858 639.776142,541 639.5,541 C639.223858,541 639,541.223858 639,541.5 L639,543 Z M639.5,551 C635.357864,551 632,547.642136 632,543.5 C632,539.357864 635.357864,536 639.5,536 C643.642136,536 647,539.357864 647,543.5 C647,547.642136 643.642136,551 639.5,551 Z" id="Combined-Shape-Copy-31"></path>
            </g>
        </g>
    </g>
</svg>