<?xml version="1.0" encoding="UTF-8"?>
<svg width="15px" height="15px" viewBox="0 0 15 15" version="1.1" xmlns="http://www.w3.org/2000/svg" xmlns:xlink="http://www.w3.org/1999/xlink">
    <!-- Generator: Sketch 44.1 (41455) - http://www.bohemiancoding.com/sketch -->
    <title>i-problem</title>
    <desc>Created with Sketch.</desc>
    <defs></defs>
    <g id="Page-1" stroke="none" stroke-width="1" fill="none" fill-rule="evenodd">
        <g id="01-创建问题-1" transform="translate(-1083.000000, -376.000000)" fill="#A5A5A5">
            <g id="Group-2" transform="translate(510.000000, 0.000000)">
                <path d="M573,383.5 C573,379.357864 576.366293,376 580.5,376 C584.642136,376 588,379.366293 588,383.5 C588,387.642136 584.633707,391 580.5,391 C576.357864,391 573,387.633707 573,383.5 Z M574,383.5 C574,387.084507 576.913232,390 580.5,390 C584.084507,390 587,387.086768 587,383.5 C587,379.915493 584.086768,377 580.5,377 C576.915493,377 574,379.913232 574,383.5 Z M579.727226,386.596468 C579.907871,386.415823 580.140129,386.3255 580.424,386.3255 C580.707871,386.3255 580.953033,386.415823 581.146581,386.596468 C581.327226,386.777113 581.430452,387.009371 581.430452,387.293242 C581.430452,387.577113 581.327226,387.822275 581.146581,388.00292 C580.940129,388.183565 580.707871,388.273887 580.424,388.273887 C580.140129,388.273887 579.907871,388.170662 579.727226,387.990016 C579.520774,387.809371 579.430452,387.577113 579.430452,387.293242 C579.430452,387.009371 579.520774,386.777113 579.727226,386.596468 Z M580.658623,378.086575 C581.56834,378.086575 582.310108,378.311953 582.869933,378.789226 C583.429759,379.253241 583.709671,379.889605 583.709671,380.698317 C583.709671,381.361196 583.527728,381.904756 583.191833,382.328999 C583.065872,382.461575 582.659999,382.819529 581.988209,383.376347 C581.736287,383.575211 581.554344,383.80059 581.428383,384.039226 C581.288427,384.304378 581.218449,384.582787 581.218449,384.900969 L581.218449,385.086575 L579.608951,385.086575 L579.608951,384.900969 C579.608951,384.397181 579.692925,383.959681 579.888864,383.601726 C580.070807,383.243772 580.616636,382.686953 581.526353,381.918014 L581.6943,381.732408 C581.946222,381.440741 582.072182,381.122559 582.072182,380.79112 C582.072182,380.35362 581.932226,380.008923 581.680305,379.757029 C581.414388,379.505135 581.036505,379.385817 580.560654,379.385817 C579.944846,379.385817 579.510982,379.558166 579.245064,379.929378 C579.007139,380.234302 578.895174,380.671802 578.895174,381.22862 L577.299672,381.22862 C577.299672,380.247559 577.59358,379.47862 578.209388,378.921802 C578.8112,378.364984 579.622947,378.086575 580.658623,378.086575 Z" id="i-problem"></path>
            </g>
        </g>
    </g>
</svg>