<?xml version="1.0" encoding="UTF-8"?>
<svg width="13px" height="14px" viewBox="0 0 13 14" version="1.1" xmlns="http://www.w3.org/2000/svg" xmlns:xlink="http://www.w3.org/1999/xlink">
    <!-- Generator: Sketch 44.1 (41455) - http://www.bohemiancoding.com/sketch -->
    <title>Combined Shape Copy 3</title>
    <desc>Created with Sketch.</desc>
    <defs></defs>
    <g id="Page-1" stroke="none" stroke-width="1" fill="none" fill-rule="evenodd">
        <g id="01-创建问题-3" transform="translate(-843.000000, -453.000000)" fill="#3ED086">
            <path d="M849.979888,454.328843 L849.979888,465.568632 L849.979888,465.568632 C849.979888,465.844775 849.75603,466.068632 849.479888,466.068632 C849.203745,466.068632 848.979888,465.844775 848.979888,465.568632 L848.979888,454.381688 L843.853553,459.508022 C843.658291,459.703284 843.341709,459.703284 843.146447,459.508022 C842.951184,459.31276 842.951184,458.996177 843.146447,458.800915 L848.552126,453.395236 C849.079107,452.868255 849.933513,452.868255 850.460495,453.395236 L855.866174,458.800915 C856.061436,458.996177 856.061436,459.31276 855.866174,459.508022 C855.670911,459.703284 855.354329,459.703284 855.159067,459.508022 L849.979888,454.328843 Z" id="Combined-Shape-Copy-3" transform="translate(849.506310, 459.534316) scale(1, -1) translate(-849.506310, -459.534316) "></path>
        </g>
    </g>
</svg>